# xmcd
#
# Track frame offsets:
#	150
#	52137
#	78312
#	116112
#	160287
#	210387
#	238812
#	282987
#
# Disc length: 4254
#
# Revision: 3
# Processed by: cddbd v1.5.1PL0 Copyright (c) Steve Scherf et al.
# Submitted via: EasyCDDAExtractor 6.2.0.3
# Normalized: r2:DSETVAR1
#
DISCID=71109c08
DTITLE=Various Artist - Philadelphia Classics
DYEAR=1977
DGENRE=R&B
TTITLE0=MFSB - Love Is The Message
TTITLE1=MFSB featuring The Three Degrees - The Sound Of Philadelphia
TTITLE2=The Three Degrees - Dirty Ol' Man
TTITLE3=The O'Jays - I Love Music
TTITLE4=Harold Melvin and The Blue Notes - Don't Leave Me This Way
TTITLE5=The O'Jays - Love Train
TTITLE6=The Intruders - I'll Always Love My Mama
TTITLE7=Harold Melvin and The Blue Notes - Bad Luck
EXTD=
EXTT0=
EXTT1=
EXTT2=
EXTT3=
EXTT4=
EXTT5=
EXTT6=
EXTT7=
PLAYORDER=
